<svg xmlns="http://www.w3.org/2000/svg" width="100" height="100" fill="none" viewBox="0 0 100 100"><path fill="#fff" stroke="#fff" d="M23.053 16.5H29.5v5.097h-6.368c-2.488 0-4.379.614-5.516 1.977l-.009.01c-1.047 1.325-1.528 3.254-1.528 5.703v7.191c0 3.852-.727 6.847-2.13 9.03-1.36 2.065-3.872 3.352-7.686 3.76l-.448.048v1.374l.455.042c3.81.357 6.32 1.645 7.678 3.76 1.404 2.183 2.131 5.178 2.131 9.03v7.19c0 2.45.482 4.38 1.528 5.704l.01.01c1.136 1.363 3.028 1.977 5.515 1.977H29.5V83.5h-6.447c-4.355 0-7.413-1.15-9.3-3.348l-.178-.216c-1.86-2.393-2.812-5.505-2.812-9.38v-8.128c0-2.273-.266-4.14-.824-5.574-.581-1.498-1.692-2.558-3.284-3.177-1.474-.621-3.537-.935-6.155-.97v-5.418c2.624-.032 4.687-.317 6.155-.888l.014-.006c1.584-.672 2.69-1.755 3.27-3.248.558-1.436.824-3.302.824-5.575v-8.129c0-3.874.951-6.986 2.812-9.379 1.87-2.337 4.983-3.564 9.478-3.564ZM76.947 82.5H70.5v-5.007h6.368c2.485 0 4.376-.604 5.514-1.948l.008-.01c1.048-1.307 1.53-3.212 1.53-5.627v-7.085c0-3.79.727-6.737 2.128-8.886 1.358-2.035 3.87-3.306 7.688-3.709l.449-.047v-1.368l-.454-.041c-3.814-.352-6.322-1.623-7.68-3.704-1.403-2.15-2.13-5.098-2.13-8.891v-7.085c0-2.415-.483-4.32-1.531-5.627l-.008-.01c-1.138-1.344-3.029-1.948-5.514-1.948H70.5V16.5h6.447c4.498 0 7.612 1.21 9.48 3.512 1.86 2.355 2.81 5.42 2.81 9.234v8.009c0 2.24.266 4.081.825 5.497.583 1.48 1.696 2.524 3.286 3.134 1.472.611 3.534.916 6.152.95v5.328c-2.623.032-4.685.312-6.152.874l-.007.002-.008.003c-1.583.662-2.69 1.73-3.272 3.205-.558 1.416-.824 3.257-.824 5.497v8.009c0 3.814-.95 6.878-2.81 9.234-1.868 2.303-4.982 3.512-9.48 3.512Z" /><path stroke="#ff6200" stroke-linecap="round" stroke-linejoin="round" stroke-width="6" d="M50 36c5.523 0 10-4.477 10-10s-4.477-10-10-10-10 4.477-10 10 4.477 10 10 10M50 36v40M38 49h24M28 64c4.714 9 12.571 12 22 12s17.286-3 22-12M28 64h9M63 64h9" /></svg>